#!OML:ASF E:\motion texture\Top Level 1\Subject 1\Session 1\male.ASF
:FULLY-SPECIFIED
:DEGREES
544
root -29.7173 17.8947 3.96244 461.248 -85.6661 -455.559
lowerback 26.8052 23.4331 7.72405
upperback 12.9141 40.8489 11.5667
thorax -174.753 130.297 -1.65298
lowerneck 28.417 31.1131 17.0311
upperneck -48.0095 78.8706 -53.9521
head 293.662 115.038 160.476
rclavicle 1.31397e-013 4.90998e-014
rhumerus 86.1476 5.28951 123.259
rradius 101.287
rwrist -66.7605
rhand -13.4592 -59.8555
rfingers 7.12502
rthumb 12.6505 -89.4524
lclavicle 1.31397e-013 4.90998e-014
lhumerus 50.8716 -1.60224 -106.733
lradius 97.4775
lwrist 49.4183
lhand -12.1166 64.2546
lfingers 7.12502
lthumb 13.9446 626.233
rfemur -13.3777 -7.79708 25.0613
rtibia 55.3334
rfoot 3.73598 -4.12757
rtoes 10.1197
lfemur -22.4211 -6.47286 -14.7035
ltibia 21.2301
lfoot -2.35116 -3.37474
ltoes 0.379965
545
root -29.8727 17.9121 3.96804 456.99 -85.8572 -451.357
lowerback 26.7434 23.3257 7.64533
upperback 12.888 40.7526 11.5044
thorax -174.733 130.387 -1.62058
lowerneck 28.3543 31.1458 16.9663
upperneck -48.1139 78.9714 -54.0014
head 294.057 115.034 160.674
rclavicle -7.49418e-014 -4.53229e-014
rhumerus 86.8095 5.05047 123.319
rradius 102.576
rwrist -66.3937
rhand -13.2087 -59.1898
rfingers 7.12502
rthumb 12.892 -88.7716
lclavicle -7.49418e-014 -4.53229e-014
lhumerus 50.7756 -1.59027 -106.568
lradius 95.9226
lwrist 49.1077
lhand -12.0041 63.9407
lfingers 7.12502
lthumb 14.053 626.554
rfemur -14.2895 -8.15209 24.7731
rtibia 56.2517
rfoot 3.91485 -4.83332
rtoes 10.0538
lfemur -21.7107 -6.64677 -15.0842
ltibia 21.0608
lfoot -2.61774 -3.56519
ltoes 0.666378
546
root -30.027 17.9293 3.97331 452.232 -86.0223 -446.65
lowerback 26.6835 23.2154 7.57934
upperback 12.8592 40.6522 11.4446
thorax -174.715 130.458 -1.58989
lowerneck 28.2899 31.1772 16.9048
upperneck -48.1994 79.0704 -54.0329
head 294.479 115.041 160.9
rclavicle -3.71727e-014 -5.46658e-014
rhumerus 87.419 4.81358 123.388
rradius 103.84
rwrist -66.0263
rhand -12.9863 -58.5424
rfingers 7.12502
rthumb 13.1064 -88.1106
lclavicle -3.71727e-014 -5.46658e-014
lhumerus 50.7279 -1.58605 -106.425
lradius 94.3989
lwrist 48.8214
lhand -11.8834 63.6228
lfingers 7.12502
lthumb 14.1693 626.88
rfemur -15.2144 -8.49355 24.4928
rtibia 57.0819
rfoot 4.01582 -5.52682
rtoes 10.0041
lfemur -20.9911 -6.81476 -15.4562
ltibia 20.8657
lfoot -2.91284 -3.74732
ltoes 0.908694
547
root -30.1802 17.9463 3.9783 447.05 -86.1538 -441.514
lowerback 26.6151 23.1069 7.54169
upperback 12.8156 40.533 11.3827
thorax -174.707 130.528 -1.56758
lowerneck 28.2205 31.2153 16.8404
upperneck -48.3086 79.1811 -54.0847
head 294.98 115.066 161.19
rclavicle 1.03964e-013 -5.1684e-015
rhumerus 87.9485 4.57952 123.473
rradius 105.079
rwrist -65.6628
rhand -12.791 -57.9244
rfingers 7.12502
rthumb 13.2946 -87.4803
lclavicle 1.03964e-013 -5.1684e-015
lhumerus 50.7126 -1.60951 -106.298
lradius 92.9107
lwrist 48.5644
lhand -11.7595 63.2983
lfingers 7.12502
lthumb 14.2887 627.213
rfemur -16.1467 -8.81858 24.2217
rtibia 57.8174
rfoot 4.04168 -6.20632
rtoes 9.97634
lfemur -20.2611 -6.97482 -15.8162
ltibia 20.645
lfoot -3.22574 -3.92603
ltoes 1.13753
548
root -30.3325 17.9627 3.98307 441.526 -86.2473 -436.033
lowerback 26.5457 22.9967 7.50891
upperback 12.7704 40.4125 11.3214
thorax -174.699 130.575 -1.54398
lowerneck 28.148 31.2465 16.7807
upperneck -48.3577 79.283 -54.0781
head 295.48 115.093 161.479
rclavicle -2.64384e-014 1.98785e-016
rhumerus 88.4215 4.36136 123.569
rradius 106.295
rwrist -65.3138
rhand -12.6245 -57.3391
rfingers 7.12502
rthumb 13.4552 -86.8845
lclavicle -2.64384e-014 1.98785e-016
lhumerus 50.7352 -1.63406 -106.197
lradius 91.4601
lwrist 48.3337
lhand -11.6356 62.9756
lfingers 7.12502
lthumb 14.4081 627.545
rfemur -17.0817 -9.1268 23.959
rtibia 58.4505
rfoot 3.9958 -6.86773
rtoes 9.97221
lfemur -19.5235 -7.12788 -16.1636
ltibia 20.4027
lfoot -3.54776 -4.10013
ltoes 1.32787
549
root -30.4836 17.9785 3.98749 435.789 -86.3006 -430.332
lowerback 26.4826 22.8857 7.48853
upperback 12.726 40.2932 11.266
thorax -174.691 130.6 -1.52225
lowerneck 28.0784 31.2784 16.7293
upperneck -48.3873 79.3792 -54.0565
head 295.994 115.138 161.795
rclavicle -1.69166e-013 1.82882e-014
rhumerus 88.8351 4.15176 123.682
rradius 107.491
rwrist -64.985
rhand -12.4855 -56.7975
rfingers 7.12502
rthumb 13.5891 -86.334
lclavicle -1.69166e-013 1.82882e-014
lhumerus 50.8 -1.66701 -106.118
lradius 90.0533
lwrist 48.1296
lhand -11.5103 62.6616
lfingers 7.12502
lthumb 14.5289 627.867
rfemur -18.0171 -9.41461 23.7045
rtibia 58.9744
rfoot 3.88097 -7.50907
rtoes 9.98976
lfemur -18.7834 -7.27412 -16.497
ltibia 20.1416
lfoot -3.87416 -4.27545
ltoes 1.49203
550
root -30.6338 17.9934 3.99167 430.009 -86.3139 -424.582
lowerback 26.423 22.7752 7.47767
upperback 12.6817 40.175 11.2145
thorax -174.685 130.606 -1.50178
lowerneck 28.0116 31.3112 16.6866
upperneck -48.3901 79.4693 -54.0125
head 296.522 115.2 162.133
rclavicle 9.26337e-014 -2.3059e-014
rhumerus 89.1842 3.95237 123.813
rradius 108.669
rwrist -64.6819
rhand -12.3717 -56.3021
rfingers 7.12502
rthumb 13.6988 -85.8312
lclavicle 9.26337e-014 -2.3059e-014
lhumerus 50.9029 -1.7103 -106.065
lradius 88.6916
lwrist 47.9513
lhand -11.3822 62.3508
lfingers 7.12502
lthumb 14.6523 628.187
rfemur -18.9486 -9.67914 23.4563
rtibia 59.3827
rfoot 3.70326 -8.12617
rtoes 10.0338
lfemur -18.043 -7.41371 -16.8173
ltibia 19.8644
lfoot -4.20131 -4.45804
ltoes 1.63933
551
root -30.7831 18.0075 3.99559 424.351 -86.2917 -418.948
lowerback 26.3656 22.6664 7.47222
upperback 12.6378 40.0592 11.166
thorax -174.678 130.593 -1.48123
lowerneck 27.9469 31.3438 16.6521
upperneck -48.3593 79.5525 -53.9387
head 297.058 115.276 162.489
rclavicle -1.145e-013 -7.11649e-014
rhumerus 89.4653 3.76701 123.965
rradius 109.833
rwrist -64.4062
rhand -12.2785 -55.8559
rfingers 7.12502
rthumb 13.7886 -85.379
lclavicle -1.145e-013 -7.11649e-014
lhumerus 51.0387 -1.7635 -106.037
lradius 87.3786
lwrist 47.7975
lhand -11.259 62.0532
lfingers 7.12502
lthumb 14.771 628.493
rfemur -19.8725 -9.91667 23.2111
rtibia 59.671
rfoot 3.46717 -8.71637
rtoes 10.0994
lfemur -17.3045 -7.54735 -17.1266
ltibia 19.5743
lfoot -4.5291 -4.63909
ltoes 1.7585
552
root -30.9314 18.0205 3.99922 418.915 -86.237 -413.529
lowerback 26.3082 22.5595 7.47059
upperback 12.5934 39.945 11.1189
thorax -174.672 130.562 -1.46
lowerneck 27.8848 31.3769 16.6262
upperneck -48.2971 79.6291 -53.8377
head 297.6 115.368 162.861
rclavicle -7.35503e-015 1.23246e-014
rhumerus 89.6757 3.59801 124.14
rradius 110.983
rwrist -64.1595
rhand -12.207 -55.4573
rfingers 7.12502
rthumb 13.8575 -84.9757
lclavicle -7.35503e-015 1.23246e-014
lhumerus 51.2044 -1.82669 -106.033
lradius 86.1158
lwrist 47.6692
lhand -11.1442 61.7758
lfingers 7.12502
lthumb 14.8816 628.779
rfemur -20.7859 -10.1258 22.9676
rtibia 59.8345
rfoot 3.17751 -9.27848
rtoes 10.1962
lfemur -16.5727 -7.67226 -17.4264
ltibia 19.2781
lfoot -4.85692 -4.80786
ltoes 1.84884
553
root -31.0789 18.0323 4.00255 413.793 -86.1548 -408.417
lowerback 26.2531 22.4552 7.4743
upperback 12.5496 39.8337 11.0748
thorax -174.665 130.513 -1.4388
lowerneck 27.8271 31.4126 16.6105
upperneck -48.2091 79.6991 -53.7158
head 298.151 115.48 163.254
rclavicle -7.09661e-014 -3.37934e-014
rhumerus 89.8135 3.44559 124.343
rradius 112.121
rwrist -63.9413
rhand -12.154 -55.1046
rfingers 7.12502
rthumb 13.9085 -84.6195
lclavicle -7.09661e-014 -3.37934e-014
lhumerus 51.3974 -1.90161 -106.053
lradius 84.907
lwrist 47.5684
lhand -11.0214 61.4954
lfingers 7.12502
lthumb 14.9999 629.068
rfemur -21.6825 -10.3046 22.7243
rtibia 59.8689
rfoot 2.84103 -9.8075
rtoes 10.3252
lfemur -15.8473 -7.78346 -17.718
ltibia 18.9775
lfoot -5.18282 -4.96319
ltoes 1.91074
554
root -31.2256 18.043 4.00559 409.05 -86.0499 -403.678
lowerback 26.2208 22.3524 7.49117
upperback 12.5177 39.7382 11.0466
thorax -174.656 130.438 -1.42104
lowerneck 27.7852 31.4584 16.6106
upperneck -48.1635 79.7638 -53.6469
head 298.701 115.628 163.683
rclavicle -2.3059e-014 -7.23576e-014
rhumerus 89.8878 3.29389 124.575
rradius 113.249
rwrist -63.7509
rhand -12.117 -54.7939
rfingers 7.12502
rthumb 13.9442 -84.3063
lclavicle -2.3059e-014 -7.23576e-014
lhumerus 51.6353 -1.99015 -106.095
lradius 83.7546
lwrist 47.4949
lhand -10.885 61.2157
lfingers 7.12502
lthumb 15.1313 629.357
rfemur -22.5589 -10.4515 22.4808
rtibia 59.773
rfoot 2.46502 -10.2971
rtoes 10.4543
lfemur -15.13 -7.88237 -18.0008
ltibia 18.6765
lfoot -5.50868 -5.11248
ltoes 1.96062
555
root -31.3716 18.0525 4.00827 404.698 -85.9264 -399.324
lowerback 26.1955 22.2519 7.51336
upperback 12.4896 39.6498 11.0241
thorax -174.646 130.342 -1.40328
lowerneck 27.7516 31.5087 16.6236
upperneck -48.1101 79.8215 -53.5771
head 299.249 115.801 164.131
rclavicle 8.26944e-014 -1.35174e-014
rhumerus 89.8909 3.15949 124.839
rradius 114.369
rwrist -63.5856
rhand -12.1107 -54.5572
rfingers 7.12502
rthumb 13.9504 -84.0692
lclavicle 8.26944e-014 -1.35174e-014
lhumerus 51.9001 -2.08777 -106.161
lradius 82.6615
lwrist 47.4548
lhand -10.7623 60.9662
lfingers 7.12502
lthumb 15.2495 629.616
rfemur -23.4127 -10.566 22.2363
rtibia 59.5461
rfoot 2.05479 -10.7513
rtoes 10.5939
lfemur -14.4233 -7.97034 -18.2748
ltibia 18.3792
lfoot -5.83566 -5.25455
ltoes 1.9984
556
root -31.517 18.0606 4.01066 400.765 -85.7913 -395.384
lowerback 26.1783 22.1548 7.53919
upperback 12.4664 39.5706 11.0078
thorax -174.634 130.225 -1.38533
lowerneck 27.7267 31.5637 16.6498
upperneck -48.0481 79.8721 -53.5059
head 299.793 115.999 164.594
rclavicle 4.94974e-014 3.57812e-015
rhumerus 89.8216 3.04484 125.134
rradius 115.479
rwrist -63.4368
rhand -12.1301 -54.3909
rfingers 7.12502
rthumb 13.9316 -83.9041
lclavicle 4.94974e-014 3.57812e-015
lhumerus 52.1883 -2.1934 -106.248
lradius 81.6281
lwrist 47.4447
lhand -10.6469 60.8324
lfingers 7.12502
lthumb 15.3606 629.758
rfemur -24.2375 -10.6449 21.9894
rtibia 59.1874
rfoot 1.62132 -11.1684
rtoes 10.7434
lfemur -13.7245 -8.04692 -18.5403
ltibia 18.0872
lfoot -6.16154 -5.3823
ltoes 2.01946
557
root -31.6617 18.0675 4.01266 397.218 -85.6454 -391.825
lowerback 26.1677 22.0604 7.56999
upperback 12.4469 39.4987 10.9972
thorax -174.621 130.089 -1.36734
lowerneck 27.7112 31.6236 16.6894
upperneck -47.9872 79.9165 -53.4434
head 300.328 116.223 165.073
rclavicle -5.40694e-014 -2.5842e-014
rhumerus 89.6808 2.95185 125.463
rradius 116.576
rwrist -63.3012
rhand -12.1574 -54.2845
rfingers 7.12502
rthumb 13.9053 -83.7996
lclavicle -5.40694e-014 -2.5842e-014
lhumerus 52.499 -2.30552 -106.355
lradius 80.6571
lwrist 47.4702
lhand -10.5205 60.6461
lfingers 7.12502
lthumb 15.4824 629.954
rfemur -25.0351 -10.6916 21.7422
rtibia 58.7008
rfoot 1.17023 -11.5459
rtoes 10.8851
lfemur -13.0393 -8.11358 -18.7947
ltibia 17.8051
lfoot -6.4889 -5.49936
ltoes 2.041
558
root -31.8058 18.0729 4.01423 394.04 -85.4929 -388.629
lowerback 26.1657 21.9688 7.60659
upperback 12.432 39.4353 10.9932
thorax -174.606 129.932 -1.34972
lowerneck 27.7058 31.6891 16.7426
upperneck -47.9325 79.9551 -53.3947
head 300.854 116.476 165.566
rclavicle 9.00495e-014 1.39149e-014
rhumerus 89.4693 2.88038 125.827
rradius 117.657
rwrist -63.1761
rhand -12.1739 -54.2251
rfingers 7.12502
rthumb 13.8894 -83.7413
lclavicle 9.00495e-014 1.39149e-014
lhumerus 52.8313 -2.42341 -106.481
lradius 79.7498
lwrist 47.531
lhand -10.3948 60.4769
lfingers 7.12502
lthumb 15.6035 809.868
rfemur -25.8021 -10.7065 21.4941
rtibia 58.0893
rfoot 0.713086 -11.8783
rtoes 10.9826
lfemur -12.3666 -8.17005 -19.0375
ltibia 17.5339
lfoot -6.81533 -5.60742
ltoes 2.05345
